<svg width="50" height="50" viewBox="0 0 50 50" fill="none" xmlns="http://www.w3.org/2000/svg">
<path d="M26.5665 2.99991C33.8238 3.3125 40.3402 6.93943 44.8452 14.0883C45.6148 15.3076 45.8761 16.0139 44.0372 16.5556C40.1532 17.6985 40.2539 17.7487 37.5999 14.8304C33.3467 10.1583 28.0266 8.2876 21.8122 9.66679C15.4372 11.0794 11.2631 15.0905 9.55607 21.3374C9.03102 23.2582 8.29738 23.7403 6.56157 23.1556C6.49247 23.137 6.42188 23.1242 6.35059 23.1175C2.51216 22.5281 2.51216 22.5281 3.68934 18.7747C6.66706 9.35898 15.4372 2.98321 26.5665 2.99991ZM36.5761 22.4684C39.8415 22.4684 43.1094 22.5066 46.3772 22.4493C47.4752 22.4279 47.8037 22.812 47.9092 23.881C48.8682 33.6642 42.1144 43.822 32.6154 46.8787C31.3687 47.2795 30.8652 47.1173 30.6974 45.7309C30.5296 44.3446 29.4747 42.8556 29.8031 41.6745C30.146 40.448 32.1431 40.4814 33.3299 39.7871C36.9477 37.6395 39.4771 34.6568 40.8916 30.6935C41.4311 29.1807 41.2896 28.5459 39.4531 28.5984C35.3366 28.7034 31.2153 28.5984 27.0963 28.6533C25.7993 28.6748 25.2454 28.4481 25.2598 26.9448C25.2982 22.4493 25.2191 22.4493 29.772 22.4493L36.5761 22.4684Z" fill="#006AFF"/>
<path d="M25.0083 46.6926C24.4521 44.2755 23.7448 41.9394 22.3351 39.8635C21.2121 37.4774 19.4751 35.4293 17.3003 33.9268C13.68 30.6792 9.32612 29.1879 4.56704 28.5914C3.21484 28.4219 2.90796 28.8515 3.19326 30.0565C4.32729 34.8287 6.45629 39.0164 10.3259 42.1948C12.1696 44.2802 14.5359 45.5354 17.1252 46.4421C19.283 47.4252 21.5487 47.8451 23.8982 47.9907C24.9531 48.0551 25.2624 47.7998 25.0083 46.6926Z" fill="#006AFF"/>
</svg>
